<?xml version="1.0" encoding="utf-8"?><svg viewBox="0 0 512 512" xmlns="http://www.w3.org/2000/svg" xmlns:xlink="http://www.w3.org/1999/xlink"><style>:root>svg{display:none}:root>svg:target{display:block}</style><svg viewBox="0 0 512.001 512.001" id="instagram" xmlns="http://www.w3.org/2000/svg"><path d="M373.406 0H138.594C62.172 0 0 62.172 0 138.594V373.41C0 449.828 62.172 512 138.594 512H373.41C449.828 512 512 449.828 512 373.41V138.594C512 62.172 449.828 0 373.406 0zm108.578 373.41c0 59.867-48.707 108.574-108.578 108.574H138.594c-59.871 0-108.578-48.707-108.578-108.574V138.594c0-59.871 48.707-108.578 108.578-108.578H373.41c59.867 0 108.574 48.707 108.574 108.578zm0 0"/><path d="M256 116.004c-77.195 0-139.996 62.8-139.996 139.996S178.804 395.996 256 395.996 395.996 333.196 395.996 256 333.196 116.004 256 116.004zm0 249.976c-60.64 0-109.98-49.335-109.98-109.98 0-60.64 49.34-109.98 109.98-109.98 60.645 0 109.98 49.34 109.98 109.98 0 60.645-49.335 109.98-109.98 109.98zm0 0M399.344 66.285c-22.813 0-41.367 18.559-41.367 41.367 0 22.813 18.554 41.371 41.367 41.371s41.37-18.558 41.37-41.37-18.558-41.368-41.37-41.368zm0 52.719c-6.258 0-11.352-5.094-11.352-11.352 0-6.261 5.094-11.351 11.352-11.351 6.261 0 11.355 5.09 11.355 11.351 0 6.258-5.094 11.352-11.355 11.352zm0 0"/></svg><svg viewBox="0 0 511.728 511.728" id="shopping_cart" xmlns="http://www.w3.org/2000/svg"><path d="M147.925 379.116c-22.357-1.142-21.936-32.588-.001-33.68 62.135.216 226.021.058 290.132.103 17.535 0 32.537-11.933 36.481-29.017l36.404-157.641c2.085-9.026-.019-18.368-5.771-25.629s-14.363-11.484-23.626-11.484c-25.791 0-244.716-.991-356.849-1.438L106.92 54.377c-4.267-15.761-18.65-26.768-34.978-26.768H15c-8.284 0-15 6.716-15 15s6.716 15 15 15h56.942a6.246 6.246 0 016.017 4.592l68.265 253.276c-12.003.436-23.183 5.318-31.661 13.92-8.908 9.04-13.692 21.006-13.471 33.695.442 25.377 21.451 46.023 46.833 46.023h21.872a52.18 52.18 0 00-5.076 22.501c0 28.95 23.552 52.502 52.502 52.502s52.502-23.552 52.502-52.502a52.177 52.177 0 00-5.077-22.501h94.716a52.185 52.185 0 00-5.073 22.493c0 28.95 23.553 52.502 52.502 52.502 28.95 0 52.503-23.553 52.503-52.502a52.174 52.174 0 00-5.464-23.285c5.936-1.999 10.216-7.598 10.216-14.207 0-8.284-6.716-15-15-15zm91.799 52.501c0 12.408-10.094 22.502-22.502 22.502s-22.502-10.094-22.502-22.502c0-12.401 10.084-22.491 22.483-22.501h.038c12.399.01 22.483 10.1 22.483 22.501zm167.07 22.494c-12.407 0-22.502-10.095-22.502-22.502 0-12.285 9.898-22.296 22.137-22.493h.731c12.24.197 22.138 10.208 22.138 22.493-.001 12.407-10.096 22.502-22.504 22.502zm74.86-302.233c.089.112.076.165.057.251l-15.339 66.425H414.43l8.845-67.023 58.149.234c.089.002.142.002.23.113zm-154.645 163.66v-66.984h53.202l-8.84 66.984zm-74.382 0l-8.912-66.984h53.294v66.984zm-69.053 0h-.047c-3.656-.001-6.877-2.467-7.828-5.98l-16.442-61.004h54.193l8.912 66.984zm56.149-96.983l-9.021-67.799 66.306.267v67.532zm87.286 0v-67.411l66.022.266-8.861 67.145zm-126.588-67.922l9.037 67.921h-58.287l-18.38-68.194zm237.635 164.905H401.63l8.84-66.984h48.973l-14.137 61.217a7.406 7.406 0 01-7.25 5.767z"/></svg></svg>